<?xml version="1.0" encoding="UTF-8" standalone="no"?>
<!DOCTYPE svg PUBLIC "-//W3C//DTD SVG 1.1//EN"
 "http://www.w3.org/Graphics/SVG/1.1/DTD/svg11.dtd">
<!-- Generated by graphviz version 2.43.0 (0)
 -->
<!-- Title: G Pages: 1 -->
<svg width="915pt" height="911pt"
 viewBox="0.00 0.00 915.10 910.60" xmlns="http://www.w3.org/2000/svg" xmlns:xlink="http://www.w3.org/1999/xlink">
<g id="graph0" class="graph" transform="scale(1 1) rotate(0) translate(28.8 881.8)">
<title>G</title>
<polygon fill="white" stroke="transparent" points="-28.8,28.8 -28.8,-881.8 886.3,-881.8 886.3,28.8 -28.8,28.8"/>
<text text-anchor="middle" x="428.75" y="-833" font-family="Helvetica,sans-Serif" font-weight="bold" font-size="20.00">Fluxo 2 — Compras, recebimento e estoque (P8 a P11)</text>
<text text-anchor="middle" x="428.75" y="-811" font-family="Helvetica,sans-Serif" font-weight="bold" font-size="20.00">Palazio del Chef</text>
<!-- v -->
<g id="node1" class="node">
<title>v</title>
<path fill="#f3e8ea" stroke="#7a1f2b" stroke-width="1.6" d="M418,-794C418,-794 238,-794 238,-794 232,-794 226,-788 226,-782 226,-782 226,-764 226,-764 226,-758 232,-752 238,-752 238,-752 418,-752 418,-752 424,-752 430,-758 430,-764 430,-764 430,-782 430,-782 430,-788 424,-794 418,-794"/>
<text text-anchor="middle" x="328" y="-776.6" font-family="Helvetica,sans-Serif" font-size="13.00">Venda baixa o estoque</text>
<text text-anchor="middle" x="328" y="-762.6" font-family="Helvetica,sans-Serif" font-size="13.00">(produto, prato ou bebida)</text>
</g>
<!-- min -->
<g id="node3" class="node">
<title>min</title>
<polygon fill="white" stroke="#7a1f2b" stroke-width="1.6" points="246,-697 108,-655 246,-613 384,-655 246,-697"/>
<text text-anchor="middle" x="246" y="-658.6" font-family="Helvetica,sans-Serif" font-size="13.00">Saldo no mínimo</text>
<text text-anchor="middle" x="246" y="-644.6" font-family="Helvetica,sans-Serif" font-size="13.00">ou abaixo?</text>
</g>
<!-- v&#45;&gt;min -->
<g id="edge1" class="edge">
<title>v&#45;&gt;min</title>
<path fill="none" stroke="#1d1d1f" d="M313.72,-751.79C303.01,-736.65 288,-715.41 274.83,-696.78"/>
<polygon fill="#1d1d1f" stroke="#1d1d1f" points="276.97,-694.97 270.07,-690.05 272.4,-698.2 276.97,-694.97"/>
</g>
<!-- ins -->
<g id="node2" class="node">
<title>ins</title>
<path fill="#fff7e0" stroke="#a07800" stroke-width="1.6" d="M182,-794C182,-794 12,-794 12,-794 6,-794 0,-788 0,-782 0,-782 0,-764 0,-764 0,-758 6,-752 12,-752 12,-752 182,-752 182,-752 188,-752 194,-758 194,-764 194,-764 194,-782 194,-782 194,-788 188,-794 182,-794"/>
<text text-anchor="middle" x="97" y="-776.6" font-family="Helvetica,sans-Serif" font-size="13.00">Insumos (ingredientes):</text>
<text text-anchor="middle" x="97" y="-762.6" font-family="Helvetica,sans-Serif" font-size="13.00">baixa feita manualmente</text>
</g>
<!-- ins&#45;&gt;min -->
<g id="edge2" class="edge">
<title>ins&#45;&gt;min</title>
<path fill="none" stroke="#1d1d1f" stroke-dasharray="5,2" d="M122.95,-751.79C144.63,-734.92 176.02,-710.48 201.66,-690.52"/>
<polygon fill="#1d1d1f" stroke="#1d1d1f" points="203.46,-692.67 208.05,-685.54 200.02,-688.25 203.46,-692.67"/>
</g>
<!-- min&#45;&gt;v -->
<g id="edge3" class="edge">
<title>min&#45;&gt;v</title>
<path fill="none" stroke="#1d1d1f" d="M236.65,-694.48C235.91,-705.63 237.21,-717.38 243,-727 247.91,-735.16 254.85,-741.91 262.68,-747.49"/>
<polygon fill="#1d1d1f" stroke="#1d1d1f" points="261.2,-749.87 269.43,-751.9 264.26,-745.18 261.2,-749.87"/>
<text text-anchor="middle" x="253.5" y="-718.2" font-family="Helvetica,sans-Serif" font-size="11.00">não</text>
</g>
<!-- al -->
<g id="node4" class="node">
<title>al</title>
<path fill="#f3e8ea" stroke="#7a1f2b" stroke-width="1.6" d="M386.5,-565C386.5,-565 105.5,-565 105.5,-565 99.5,-565 93.5,-559 93.5,-553 93.5,-553 93.5,-541 93.5,-541 93.5,-535 99.5,-529 105.5,-529 105.5,-529 386.5,-529 386.5,-529 392.5,-529 398.5,-535 398.5,-541 398.5,-541 398.5,-553 398.5,-553 398.5,-559 392.5,-565 386.5,-565"/>
<text text-anchor="middle" x="246" y="-543.6" font-family="Helvetica,sans-Serif" font-size="13.00">Alerta de reposição (proposta do modelo)</text>
</g>
<!-- min&#45;&gt;al -->
<g id="edge4" class="edge">
<title>min&#45;&gt;al</title>
<path fill="none" stroke="#1d1d1f" d="M246,-612.71C246,-599.43 246,-585.11 246,-573.33"/>
<polygon fill="#1d1d1f" stroke="#1d1d1f" points="248.8,-573.25 246,-565.25 243.2,-573.25 248.8,-573.25"/>
<text text-anchor="middle" x="256" y="-586.2" font-family="Helvetica,sans-Serif" font-size="11.00">sim</text>
</g>
<!-- prop -->
<g id="node5" class="node">
<title>prop</title>
<path fill="#f3e8ea" stroke="#7a1f2b" stroke-width="1.6" d="M413.5,-492C413.5,-492 78.5,-492 78.5,-492 72.5,-492 66.5,-486 66.5,-480 66.5,-480 66.5,-448 66.5,-448 66.5,-442 72.5,-436 78.5,-436 78.5,-436 413.5,-436 413.5,-436 419.5,-436 425.5,-442 425.5,-448 425.5,-448 425.5,-480 425.5,-480 425.5,-486 419.5,-492 413.5,-492"/>
<text text-anchor="middle" x="246" y="-474.6" font-family="Helvetica,sans-Serif" font-size="13.00">Proprietário compra</text>
<text text-anchor="middle" x="246" y="-460.6" font-family="Helvetica,sans-Serif" font-size="13.00">produtos e insumos</text>
<text text-anchor="middle" x="246" y="-446.6" font-family="Helvetica,sans-Serif" font-size="13.00">(fornecedor não informado pelo estabelecimento)</text>
</g>
<!-- al&#45;&gt;prop -->
<g id="edge5" class="edge">
<title>al&#45;&gt;prop</title>
<path fill="none" stroke="#1d1d1f" d="M246,-528.82C246,-520.48 246,-510.13 246,-500.21"/>
<polygon fill="#1d1d1f" stroke="#1d1d1f" points="248.8,-500.04 246,-492.04 243.2,-500.04 248.8,-500.04"/>
</g>
<!-- reg -->
<g id="node6" class="node">
<title>reg</title>
<path fill="#f3e8ea" stroke="#7a1f2b" stroke-width="1.6" d="M422.5,-399C422.5,-399 69.5,-399 69.5,-399 63.5,-399 57.5,-393 57.5,-387 57.5,-387 57.5,-369 57.5,-369 57.5,-363 63.5,-357 69.5,-357 69.5,-357 422.5,-357 422.5,-357 428.5,-357 434.5,-363 434.5,-369 434.5,-369 434.5,-387 434.5,-387 434.5,-393 428.5,-399 422.5,-399"/>
<text text-anchor="middle" x="246" y="-381.6" font-family="Helvetica,sans-Serif" font-size="13.00">Registro da compra:</text>
<text text-anchor="middle" x="246" y="-367.6" font-family="Helvetica,sans-Serif" font-size="13.00">fornecedor, produtos, quantidade e custo (proposta)</text>
</g>
<!-- prop&#45;&gt;reg -->
<g id="edge6" class="edge">
<title>prop&#45;&gt;reg</title>
<path fill="none" stroke="#1d1d1f" d="M246,-435.96C246,-426.78 246,-416.5 246,-407.23"/>
<polygon fill="#1d1d1f" stroke="#1d1d1f" points="248.8,-407.06 246,-399.06 243.2,-407.06 248.8,-407.06"/>
</g>
<!-- chega -->
<g id="node7" class="node">
<title>chega</title>
<path fill="#f3e8ea" stroke="#7a1f2b" stroke-width="1.6" d="M307,-320C307,-320 185,-320 185,-320 179,-320 173,-314 173,-308 173,-308 173,-296 173,-296 173,-290 179,-284 185,-284 185,-284 307,-284 307,-284 313,-284 319,-290 319,-296 319,-296 319,-308 319,-308 319,-314 313,-320 307,-320"/>
<text text-anchor="middle" x="246" y="-298.6" font-family="Helvetica,sans-Serif" font-size="13.00">Mercadoria chega</text>
</g>
<!-- reg&#45;&gt;chega -->
<g id="edge7" class="edge">
<title>reg&#45;&gt;chega</title>
<path fill="none" stroke="#1d1d1f" d="M246,-356.78C246,-348 246,-337.62 246,-328.33"/>
<polygon fill="#1d1d1f" stroke="#1d1d1f" points="248.8,-328.19 246,-320.19 243.2,-328.19 248.8,-328.19"/>
</g>
<!-- ger -->
<g id="node8" class="node">
<title>ger</title>
<path fill="#f3e8ea" stroke="#7a1f2b" stroke-width="1.6" d="M333,-247C333,-247 159,-247 159,-247 153,-247 147,-241 147,-235 147,-235 147,-223 147,-223 147,-217 153,-211 159,-211 159,-211 333,-211 333,-211 339,-211 345,-217 345,-223 345,-223 345,-235 345,-235 345,-241 339,-247 333,-247"/>
<text text-anchor="middle" x="246" y="-225.6" font-family="Helvetica,sans-Serif" font-size="13.00">Gerente recebe e confere</text>
</g>
<!-- chega&#45;&gt;ger -->
<g id="edge8" class="edge">
<title>chega&#45;&gt;ger</title>
<path fill="none" stroke="#1d1d1f" d="M246,-283.81C246,-275.18 246,-264.56 246,-255.03"/>
<polygon fill="#1d1d1f" stroke="#1d1d1f" points="248.8,-255.03 246,-247.03 243.2,-255.03 248.8,-255.03"/>
</g>
<!-- ok -->
<g id="node9" class="node">
<title>ok</title>
<polygon fill="white" stroke="#7a1f2b" stroke-width="1.6" points="246,-174 76,-132 246,-90 416,-132 246,-174"/>
<text text-anchor="middle" x="246" y="-135.6" font-family="Helvetica,sans-Serif" font-size="13.00">Nota, quantidade</text>
<text text-anchor="middle" x="246" y="-121.6" font-family="Helvetica,sans-Serif" font-size="13.00">e validade conferem?</text>
</g>
<!-- ger&#45;&gt;ok -->
<g id="edge9" class="edge">
<title>ger&#45;&gt;ok</title>
<path fill="none" stroke="#1d1d1f" d="M246,-210.58C246,-202.54 246,-192.57 246,-182.47"/>
<polygon fill="#1d1d1f" stroke="#1d1d1f" points="248.8,-182.38 246,-174.38 243.2,-182.38 248.8,-182.38"/>
</g>
<!-- rec -->
<g id="node10" class="node">
<title>rec</title>
<path fill="#fde8e8" stroke="#7a1f2b" stroke-width="1.6" d="M674.5,-150C674.5,-150 491.5,-150 491.5,-150 485.5,-150 479.5,-144 479.5,-138 479.5,-138 479.5,-126 479.5,-126 479.5,-120 485.5,-114 491.5,-114 491.5,-114 674.5,-114 674.5,-114 680.5,-114 686.5,-120 686.5,-126 686.5,-126 686.5,-138 686.5,-138 686.5,-144 680.5,-150 674.5,-150"/>
<text text-anchor="middle" x="583" y="-128.6" font-family="Helvetica,sans-Serif" font-size="13.00">Recusa ou ajusta a compra</text>
</g>
<!-- ok&#45;&gt;rec -->
<g id="edge10" class="edge">
<title>ok&#45;&gt;rec</title>
<path fill="none" stroke="#1d1d1f" d="M416.47,-132C435.02,-132 453.53,-132 471.12,-132"/>
<polygon fill="#1d1d1f" stroke="#1d1d1f" points="471.13,-134.8 479.13,-132 471.13,-129.2 471.13,-134.8"/>
<text text-anchor="middle" x="447.75" y="-138.2" font-family="Helvetica,sans-Serif" font-size="11.00">não</text>
</g>
<!-- cad -->
<g id="node11" class="node">
<title>cad</title>
<path fill="#f3e8ea" stroke="#7a1f2b" stroke-width="1.6" d="M349.5,-42C349.5,-42 142.5,-42 142.5,-42 136.5,-42 130.5,-36 130.5,-30 130.5,-30 130.5,-12 130.5,-12 130.5,-6 136.5,0 142.5,0 142.5,0 349.5,0 349.5,0 355.5,0 361.5,-6 361.5,-12 361.5,-12 361.5,-30 361.5,-30 361.5,-36 355.5,-42 349.5,-42"/>
<text text-anchor="middle" x="246" y="-24.6" font-family="Helvetica,sans-Serif" font-size="13.00">Produto recebido é cadastrado</text>
<text text-anchor="middle" x="246" y="-10.6" font-family="Helvetica,sans-Serif" font-size="13.00">com código de barras próprio</text>
</g>
<!-- ok&#45;&gt;cad -->
<g id="edge11" class="edge">
<title>ok&#45;&gt;cad</title>
<path fill="none" stroke="#1d1d1f" d="M246,-89.79C246,-76.69 246,-62.5 246,-50.51"/>
<polygon fill="#1d1d1f" stroke="#1d1d1f" points="248.8,-50.21 246,-42.21 243.2,-50.21 248.8,-50.21"/>
<text text-anchor="middle" x="256" y="-63.2" font-family="Helvetica,sans-Serif" font-size="11.00">sim</text>
</g>
<!-- ent -->
<g id="node12" class="node">
<title>ent</title>
<path fill="#f3e8ea" stroke="#7a1f2b" stroke-width="1.6" d="M769,-676C769,-676 551,-676 551,-676 545,-676 539,-670 539,-664 539,-664 539,-646 539,-646 539,-640 545,-634 551,-634 551,-634 769,-634 769,-634 775,-634 781,-640 781,-646 781,-646 781,-664 781,-664 781,-670 775,-676 769,-676"/>
<text text-anchor="middle" x="660" y="-658.6" font-family="Helvetica,sans-Serif" font-size="13.00">Entrada no estoque</text>
<text text-anchor="middle" x="660" y="-644.6" font-family="Helvetica,sans-Serif" font-size="13.00">(movimentação do tipo compra)</text>
</g>
<!-- cad&#45;&gt;ent -->
<g id="edge12" class="edge">
<title>cad&#45;&gt;ent</title>
<path fill="none" stroke="#1d1d1f" d="M361.53,-22.66C482.16,-26.1 659.75,-39.84 703,-90 840.39,-249.35 717.69,-537.03 674.02,-626.61"/>
<polygon fill="#1d1d1f" stroke="#1d1d1f" points="671.43,-625.52 670.41,-633.93 676.46,-627.99 671.43,-625.52"/>
</g>
<!-- ent&#45;&gt;v -->
<g id="edge13" class="edge">
<title>ent&#45;&gt;v</title>
<path fill="none" stroke="#1d1d1f" d="M602.7,-676.02C544.37,-696.4 454.1,-727.94 393.11,-749.25"/>
<polygon fill="#1d1d1f" stroke="#1d1d1f" points="392.08,-746.64 385.45,-751.93 393.93,-751.93 392.08,-746.64"/>
</g>
<!-- val -->
<g id="node13" class="node">
<title>val</title>
<polygon fill="#fff7e0" stroke="#a07800" stroke-width="1.6" points="851.5,-801 462.5,-801 462.5,-745 857.5,-745 857.5,-795 851.5,-801"/>
<polyline fill="none" stroke="#a07800" stroke-width="1.6" points="851.5,-801 851.5,-795 "/>
<polyline fill="none" stroke="#a07800" stroke-width="1.6" points="857.5,-795 851.5,-795 "/>
<text text-anchor="middle" x="660" y="-783.6" font-family="Helvetica,sans-Serif" font-size="13.00">Mensalmente: garçons conferem a validade,</text>
<text text-anchor="middle" x="660" y="-769.6" font-family="Helvetica,sans-Serif" font-size="13.00">retiram itens a até 10 dias do vencimento</text>
<text text-anchor="middle" x="660" y="-755.6" font-family="Helvetica,sans-Serif" font-size="13.00">e anotam em planilha (ajuste de estoque, com motivo)</text>
</g>
<!-- val&#45;&gt;ent -->
<g id="edge14" class="edge">
<title>val&#45;&gt;ent</title>
<path fill="none" stroke="#1d1d1f" stroke-dasharray="5,2" d="M660,-744.8C660,-726.57 660,-702.61 660,-684.18"/>
<polygon fill="#1d1d1f" stroke="#1d1d1f" points="662.8,-684.14 660,-676.14 657.2,-684.14 662.8,-684.14"/>
</g>
</g>
</svg>
